<svg width="231" height="231" viewBox="0 0 231 231" fill="none" xmlns="http://www.w3.org/2000/svg">
<path d="M185.465 133.265C186.656 131.407 188.299 129.907 190.394 128.764C192.489 127.622 194.942 127.05 197.752 127.05C201.037 127.05 204.014 127.883 206.681 129.55C209.348 131.217 211.443 133.598 212.967 136.694C214.538 139.789 215.324 143.384 215.324 147.48C215.324 151.575 214.538 155.195 212.967 158.338C211.443 161.433 209.348 163.838 206.681 165.553C204.014 167.219 201.037 168.053 197.752 168.053C194.989 168.053 192.537 167.481 190.394 166.338C188.299 165.195 186.656 163.719 185.465 161.909V186.482H173.25V127.622H185.465V133.265ZM202.895 147.48C202.895 144.432 202.038 142.051 200.323 140.337C198.656 138.575 196.585 137.694 194.108 137.694C191.68 137.694 189.608 138.575 187.894 140.337C186.227 142.099 185.394 144.504 185.394 147.551C185.394 150.599 186.227 153.004 187.894 154.766C189.608 156.528 191.68 157.409 194.108 157.409C196.537 157.409 198.609 156.528 200.323 154.766C202.038 152.956 202.895 150.528 202.895 147.48Z" fill="#25A18E"/>
<path d="M186.061 56.6287C188.871 56.6287 191.323 57.2001 193.418 58.3431C195.561 59.486 197.204 60.9861 198.347 62.8433V57.2001H210.562V96.9884C210.562 100.655 209.824 103.965 208.348 106.918C206.919 109.918 204.705 112.299 201.705 114.061C198.752 115.823 195.061 116.704 190.633 116.704C184.727 116.704 179.941 115.299 176.274 112.489C172.608 109.727 170.512 105.965 169.988 101.203H182.061C182.442 102.727 183.346 103.917 184.775 104.775C186.204 105.679 187.966 106.132 190.061 106.132C192.585 106.132 194.585 105.394 196.061 103.917C197.585 102.489 198.347 100.179 198.347 96.9884V91.3452C197.157 93.2024 195.514 94.7263 193.418 95.9169C191.323 97.0598 188.871 97.6313 186.061 97.6313C182.775 97.6313 179.799 96.7979 177.132 95.1311C174.465 93.4167 172.346 91.0118 170.774 87.9164C169.25 84.7733 168.488 81.154 168.488 77.0585C168.488 72.963 169.25 69.3676 170.774 66.2721C172.346 63.1767 174.465 60.7956 177.132 59.1288C179.799 57.462 182.775 56.6287 186.061 56.6287ZM198.347 77.13C198.347 74.0822 197.49 71.6772 195.776 69.9152C194.109 68.1532 192.061 67.2722 189.632 67.2722C187.204 67.2722 185.132 68.1532 183.418 69.9152C181.751 71.6296 180.918 74.0107 180.918 77.0585C180.918 80.1064 181.751 82.5351 183.418 84.3447C185.132 86.1067 187.204 86.9877 189.632 86.9877C192.061 86.9877 194.109 86.1067 195.776 84.3447C197.49 82.5827 198.347 80.1778 198.347 77.13Z" fill="#004E64"/>
<path d="M120.722 77.0585C120.722 72.963 121.484 69.3676 123.008 66.2721C124.58 63.1767 126.699 60.7956 129.366 59.1288C132.032 57.462 135.009 56.6287 138.295 56.6287C141.104 56.6287 143.557 57.2001 145.652 58.3431C147.795 59.486 149.438 60.9861 150.581 62.8433V57.2001H162.796V97.0598H150.581V91.4166C149.391 93.2739 147.724 94.774 145.581 95.9169C143.486 97.0598 141.033 97.6313 138.223 97.6313C134.985 97.6313 132.032 96.7979 129.366 95.1311C126.699 93.4167 124.58 91.0118 123.008 87.9164C121.484 84.7733 120.722 81.154 120.722 77.0585ZM150.581 77.13C150.581 74.0822 149.724 71.6772 148.01 69.9152C146.343 68.1532 144.295 67.2722 141.866 67.2722C139.438 67.2722 137.366 68.1532 135.652 69.9152C133.985 71.6296 133.152 74.0107 133.152 77.0585C133.152 80.1064 133.985 82.5351 135.652 84.3447C137.366 86.1067 139.438 86.9878 141.866 86.9878C144.295 86.9878 146.343 86.1067 148.01 84.3447C149.724 82.5827 150.581 80.1778 150.581 77.13Z" fill="#004E64"/>
<path d="M118.396 57.75L107.61 97.6097H94.109L87.8228 71.7509L81.3224 97.6097H67.893L57.0352 57.75H69.2502L74.8934 86.2518L81.6082 57.75H94.5376L101.324 86.109L106.895 57.75H118.396Z" fill="#004E64"/>
<path d="M36.8979 97.5604C33.231 97.5604 29.9451 96.9651 27.0401 95.7746C24.1352 94.584 21.8017 92.822 20.0397 90.4885C18.3253 88.155 17.4204 85.3453 17.3252 82.0594H30.326C30.5165 83.9166 31.1594 85.3453 32.2547 86.3454C33.35 87.2978 34.7787 87.774 36.5407 87.774C38.3503 87.774 39.779 87.3693 40.8267 86.5597C41.8744 85.7025 42.3982 84.5357 42.3982 83.0595C42.3982 81.8213 41.9696 80.7974 41.1124 79.9878C40.3029 79.1783 39.279 78.5115 38.0408 77.9877C36.8503 77.4639 35.1359 76.8686 32.8976 76.2019C29.6593 75.2018 27.0163 74.2017 24.9685 73.2017C22.9208 72.2016 21.1588 70.7253 19.6825 68.7728C18.2062 66.8203 17.4681 64.2725 17.4681 61.1295C17.4681 56.4625 19.1586 52.8194 22.5398 50.2002C25.921 47.5334 30.326 46.2 35.7549 46.2C41.2791 46.2 45.7318 47.5334 49.1129 50.2002C52.4941 52.8194 54.3038 56.4863 54.5419 61.2009H41.3267C41.2315 59.5818 40.6362 58.3198 39.5409 57.415C38.4456 56.4625 37.0407 55.9863 35.3263 55.9863C33.8501 55.9863 32.6595 56.3911 31.7547 57.2007C30.8499 57.9626 30.3975 59.0817 30.3975 60.558C30.3975 62.1772 31.1594 63.4391 32.6833 64.344C34.2072 65.2488 36.5883 66.225 39.8266 67.2727C43.0649 68.368 45.6842 69.4157 47.6843 70.4158C49.732 71.4158 51.494 72.8683 52.9703 74.7732C54.4466 76.6781 55.1848 79.1306 55.1848 82.1308C55.1848 84.9881 54.4466 87.5836 52.9703 89.917C51.5417 92.2505 49.4463 94.1078 46.6842 95.4888C43.9221 96.8699 40.66 97.5604 36.8979 97.5604Z" fill="#004E64"/>
<path d="M120.723 146.358C120.723 142.263 121.485 138.667 123.009 135.572C124.58 132.477 126.699 130.095 129.366 128.429C132.033 126.762 135.009 125.928 138.295 125.928C141.105 125.928 143.557 126.5 145.653 127.643C147.796 128.786 149.439 130.286 150.582 132.143V126.5H162.797V166.36H150.582V160.716C149.391 162.574 147.724 164.074 145.581 165.217C143.486 166.36 141.033 166.931 138.224 166.931C134.985 166.931 132.033 166.098 129.366 164.431C126.699 162.717 124.58 160.312 123.009 157.216C121.485 154.073 120.723 150.454 120.723 146.358ZM150.582 146.43C150.582 143.382 149.725 140.977 148.01 139.215C146.343 137.453 144.296 136.572 141.867 136.572C139.438 136.572 137.367 137.453 135.652 139.215C133.985 140.929 133.152 143.311 133.152 146.358C133.152 149.406 133.985 151.835 135.652 153.645C137.367 155.407 139.438 156.288 141.867 156.288C144.296 156.288 146.343 155.407 148.01 153.645C149.725 151.883 150.582 149.478 150.582 146.43Z" fill="#25A18E"/>
<path d="M118.395 127.05L107.609 166.91H94.108L87.8219 141.051L81.3214 166.91H67.892L57.0342 127.05H69.2492L74.8925 155.552L81.6072 127.05H94.5366L101.323 155.409L106.895 127.05H118.395Z" fill="#25A18E"/>
<path d="M36.8979 166.86C33.231 166.86 29.9451 166.265 27.0401 165.075C24.1352 163.884 21.8017 162.122 20.0397 159.789C18.3253 157.455 17.4204 154.645 17.3252 151.359H30.326C30.5165 153.217 31.1594 154.645 32.2547 155.645C33.35 156.598 34.7787 157.074 36.5407 157.074C38.3503 157.074 39.779 156.669 40.8267 155.86C41.8744 155.003 42.3982 153.836 42.3982 152.36C42.3982 151.121 41.9696 150.097 41.1124 149.288C40.3029 148.478 39.279 147.812 38.0408 147.288C36.8503 146.764 35.1359 146.169 32.8976 145.502C29.6593 144.502 27.0163 143.502 24.9685 142.502C22.9208 141.502 21.1588 140.025 19.6825 138.073C18.2062 136.12 17.4681 133.573 17.4681 130.43C17.4681 125.763 19.1586 122.119 22.5398 119.5C25.921 116.833 30.326 115.5 35.7549 115.5C41.2791 115.5 45.7318 116.833 49.1129 119.5C52.4941 122.119 54.3038 125.786 54.5419 130.501H41.3267C41.2315 128.882 40.6362 127.62 39.5409 126.715C38.4456 125.763 37.0407 125.286 35.3263 125.286C33.8501 125.286 32.6595 125.691 31.7547 126.501C30.8499 127.263 30.3975 128.382 30.3975 129.858C30.3975 131.477 31.1594 132.739 32.6833 133.644C34.2072 134.549 36.5883 135.525 39.8266 136.573C43.0649 137.668 45.6842 138.716 47.6843 139.716C49.732 140.716 51.494 142.168 52.9703 144.073C54.4466 145.978 55.1848 148.431 55.1848 151.431C55.1848 154.288 54.4466 156.884 52.9703 159.217C51.5417 161.551 49.4463 163.408 46.6842 164.789C43.9221 166.17 40.66 166.86 36.8979 166.86Z" fill="#25A18E"/>
</svg>
